<svg width="32" height="26" viewBox="0 0 32 26" fill="none" xmlns="http://www.w3.org/2000/svg">
<g clip-path="url(#clip0_1_2)">
<path d="M6.95508 7.47168C7.76888 7.52051 8.45247 7.5612 9.00586 7.59375C9.57552 7.61003 10.0475 7.6263 10.4219 7.64258C10.8451 7.65885 11.2031 7.65885 11.4961 7.64258C11.7891 7.6263 12.1878 7.58561 12.6924 7.52051C13.1156 7.47168 13.6771 7.39844 14.377 7.30078C15.0931 7.18685 15.9801 7.04036 17.0381 6.86133C16.6637 7.23568 16.3708 7.57747 16.1592 7.88672C15.9639 8.17969 15.8092 8.43197 15.6953 8.64355C15.5651 8.90397 15.4756 9.1237 15.4268 9.30273C15.3942 9.46549 15.4268 9.8724 15.5244 10.5234C15.6221 11.1745 15.7604 11.9476 15.9395 12.8428C16.1185 13.7217 16.3138 14.6657 16.5254 15.6748C16.737 16.6676 16.9486 17.6035 17.1602 18.4824C17.3717 19.3451 17.5589 20.0856 17.7217 20.7041C17.9007 21.3063 18.0309 21.6644 18.1123 21.7783C18.3564 22.1201 18.5111 22.348 18.5762 22.4619C18.6413 22.5596 18.7552 22.6491 18.918 22.7305C18.9831 22.763 19.0889 22.8118 19.2354 22.877C19.3656 22.9421 19.5365 23.0234 19.748 23.1211C19.9759 23.2188 20.2607 23.3327 20.6025 23.4629C19.9678 23.4954 19.4225 23.5199 18.9668 23.5361C18.5111 23.5361 18.1367 23.5443 17.8438 23.5605C17.502 23.5768 17.209 23.5931 16.9648 23.6094C16.7207 23.6094 16.4277 23.6257 16.0859 23.6582C15.793 23.6908 15.4105 23.7233 14.9385 23.7559C14.4827 23.7884 13.9456 23.821 13.3271 23.8535C13.6527 23.6257 13.9131 23.4222 14.1084 23.2432C14.32 23.0479 14.4827 22.8851 14.5967 22.7549C14.7269 22.5921 14.8164 22.4456 14.8652 22.3154C14.8978 22.1689 14.9222 21.9492 14.9385 21.6562C14.9548 21.3958 14.9548 21.054 14.9385 20.6309C14.9222 20.1914 14.8815 19.6217 14.8164 18.9219L8.39551 19.5811C8.23275 19.8577 8.11068 20.1019 8.0293 20.3135C7.94792 20.5088 7.89095 20.6797 7.8584 20.8262C7.80957 21.0052 7.79329 21.1517 7.80957 21.2656C7.84212 21.3958 7.89909 21.5505 7.98047 21.7295C8.06185 21.8923 8.17578 22.0876 8.32227 22.3154C8.48503 22.527 8.72103 22.7793 9.03027 23.0723C8.62337 23.056 8.20833 23.0479 7.78516 23.0479C7.36198 23.0479 6.97135 23.056 6.61328 23.0723C6.1901 23.0885 5.77507 23.1048 5.36816 23.1211C4.96126 23.1374 4.4974 23.1618 3.97656 23.1943C3.53711 23.2269 3.02441 23.2676 2.43848 23.3164C1.83626 23.349 1.19336 23.3978 0.509766 23.4629C0.932943 23.2676 1.29102 23.0723 1.58398 22.877C1.87695 22.6654 2.12109 22.4701 2.31641 22.291C2.54427 22.0957 2.73958 21.9085 2.90234 21.7295C3.01628 21.5667 3.24414 21.1924 3.58594 20.6064C3.92773 20.0042 4.31022 19.2962 4.7334 18.4824C5.17285 17.6686 5.62858 16.7979 6.10059 15.8701C6.58887 14.9424 7.02832 14.0716 7.41895 13.2578C7.80957 12.4277 8.12695 11.7116 8.37109 11.1094C8.61523 10.5072 8.7373 10.1165 8.7373 9.9375C8.70475 9.72591 8.62337 9.48991 8.49316 9.22949C8.37923 9.00163 8.2002 8.74121 7.95605 8.44824C7.72819 8.15527 7.39453 7.82975 6.95508 7.47168ZM14.5234 17.1152C14.4258 16.5456 14.3363 16.0573 14.2549 15.6504C14.1735 15.2272 14.1084 14.8773 14.0596 14.6006C13.9945 14.2751 13.9456 13.9902 13.9131 13.7461C13.8643 13.5182 13.8073 13.2253 13.7422 12.8672C13.6771 12.5579 13.5957 12.1755 13.498 11.7197C13.4167 11.2477 13.3109 10.6862 13.1807 10.0352C12.2529 11.8906 11.5286 13.3311 11.0078 14.3564C10.5033 15.3656 10.137 16.1061 9.90918 16.5781C9.63249 17.1315 9.47786 17.457 9.44531 17.5547L14.5234 17.1152Z" fill="black"/>
<path d="M30.2197 22.7109C30.501 22.6719 30.7197 22.7188 30.876 22.8516C31.04 22.9844 31.1182 23.168 31.1104 23.4023C31.1025 23.5195 31.0791 23.6133 31.04 23.6836C31.001 23.7539 30.9463 23.8086 30.876 23.8477C30.8135 23.8789 30.7354 23.9062 30.6416 23.9297C30.5557 23.9453 30.4541 23.9609 30.3369 23.9766C30.2197 24 30.1064 23.9961 29.9971 23.9648C29.8877 23.9258 29.79 23.8711 29.7041 23.8008C29.6182 23.7305 29.5479 23.6523 29.4932 23.5664C29.4463 23.4805 29.4229 23.3945 29.4229 23.3086C29.4229 23.2148 29.4463 23.1367 29.4932 23.0742C29.5479 23.0039 29.6143 22.9453 29.6924 22.8984C29.7783 22.8438 29.8643 22.8047 29.9502 22.7812C30.0439 22.75 30.1338 22.7266 30.2197 22.7109Z" fill="#4200FF"/>
</g>
<defs>
<clipPath id="clip0_1_2">
<rect width="32" height="26" fill="white"/>
</clipPath>
</defs>
</svg>
